<mxfile host="65bd71144e">
    <diagram id="m06KGHUA2RDaZFxtwGbm" name="PÃ¡gina-1">
        <mxGraphModel dx="514" dy="437" grid="1" gridSize="10" guides="1" tooltips="1" connect="1" arrows="1" fold="1" page="1" pageScale="1" pageWidth="827" pageHeight="1169" math="0" shadow="0">
            <root>
                <mxCell id="0"/>
                <mxCell id="1" parent="0"/>
                <mxCell id="2" value="" style="shape=loopLimit;whiteSpace=wrap;html=1;" vertex="1" parent="1">
                    <mxGeometry x="190" y="50" width="100" height="80" as="geometry"/>
                </mxCell>
                <mxCell id="3" value="" style="shape=singleArrow;direction=north;whiteSpace=wrap;html=1;" vertex="1" parent="1">
                    <mxGeometry x="220" y="140" width="60" height="100" as="geometry"/>
                </mxCell>
                <mxCell id="4" value="" style="shape=actor;whiteSpace=wrap;html=1;" vertex="1" parent="1">
                    <mxGeometry x="370" y="220" width="40" height="60" as="geometry"/>
                </mxCell>
                <mxCell id="5" value="" style="shape=collate;whiteSpace=wrap;html=1;" vertex="1" parent="1">
                    <mxGeometry x="70" y="230" width="80" height="80" as="geometry"/>
                </mxCell>
                <mxCell id="6" value="" style="shape=datastore;whiteSpace=wrap;html=1;" vertex="1" parent="1">
                    <mxGeometry x="384" y="360" width="60" height="60" as="geometry"/>
                </mxCell>
            </root>
        </mxGraphModel>
    </diagram>
</mxfile>